<?xml version="1.0" encoding="utf-8"?>
<!-- Generator: Adobe Illustrator 28.2.0, SVG Export Plug-In . SVG Version: 6.00 Build 0)  -->
<svg version="1.1" id="Layer_1" xmlns="http://www.w3.org/2000/svg" xmlns:xlink="http://www.w3.org/1999/xlink" x="0px" y="0px"
	 viewBox="0 0 564.15 138.13" style="enable-background:new 0 0 564.15 138.13;" xml:space="preserve">
<style type="text/css">
	.st0{fill:none;stroke:#000000;stroke-width:3;stroke-miterlimit:10;}
	.st1{fill:#33292C;}
	.st2{fill:url(#SVGID_1_);}
	.st3{fill:url(#SVGID_00000051347315014129101010000013437639596859740845_);}
	.st4{fill:url(#SVGID_00000088111475978476869870000007194699237873142203_);}
	.st5{fill:url(#SVGID_00000077298924955284354730000014073867326946178450_);}
	.st6{fill:url(#SVGID_00000002345829473477949630000003361005080866991750_);}
	.st7{fill:url(#SVGID_00000121244115382600223440000008542337396403078316_);}
	.st8{fill:url(#SVGID_00000140704728512399324320000011677578044346539146_);}
	.st9{fill:url(#SVGID_00000163046957792599656780000009383988775599023014_);}
	.st10{fill:url(#SVGID_00000026849868718099952000000008054396113232350614_);}
	.st11{fill:url(#SVGID_00000043424725473029701270000007525456256740245396_);}
	.st12{fill:url(#SVGID_00000107578449120713077960000012620001656777696663_);}
	.st13{fill:url(#SVGID_00000067210247321872987170000015977688213728830884_);}
	.st14{fill:url(#SVGID_00000155146396395981441630000006564502406147230866_);}
	.st15{fill:url(#SVGID_00000116930064977310913590000011078668283366395269_);}
	.st16{fill:url(#SVGID_00000011014420732207727470000008515292685240041112_);}
	.st17{fill:url(#SVGID_00000138544949430504285500000000398903799970668185_);}
	.st18{fill:url(#SVGID_00000009590544355856426530000010681423397701096587_);}
	.st19{fill:url(#SVGID_00000106843009132794386690000011474567293637168272_);}
	.st20{fill:url(#SVGID_00000055701453804485187630000009344605367537085327_);}
	.st21{fill:url(#SVGID_00000147178568913077422860000006403262747240629643_);}
	.st22{fill:url(#SVGID_00000013877695542313526890000003959679863967630999_);}
	.st23{fill:url(#SVGID_00000149345074891085514540000009705437723737617816_);}
	.st24{fill:url(#SVGID_00000119805825237313016520000005586733008316323225_);}
	.st25{fill:url(#SVGID_00000103985614741127124290000007344911726185140114_);}
	.st26{fill:url(#SVGID_00000166655071083096220410000004867659700185091245_);}
	.st27{fill:url(#SVGID_00000062885781291463519590000011307582953689041594_);}
	.st28{fill:url(#SVGID_00000008839827410352340390000016371191045149467532_);}
	.st29{fill:url(#SVGID_00000166637719843235658590000011155273956415432601_);}
</style>
<g>
	<path d="M262.06,21.58H237.6c-0.51,0-0.95,0.33-1.1,0.82l-13.97,46.98c-0.32,1.09-1.86,1.09-2.2,0.01l-14.45-47
		c-0.15-0.48-0.59-0.81-1.1-0.81h-24.33c-0.58,0-1.06,0.43-1.14,1l-11.88,92.68c-0.09,0.69,0.45,1.29,1.14,1.29h21.04
		c0.59,0,1.09-0.45,1.14-1.04l4.43-48.07c0.11-1.24,1.85-1.43,2.23-0.24l15.55,48.56c0.15,0.48,0.59,0.8,1.09,0.8h14.38
		c0.5,0,0.94-0.32,1.09-0.8l15.55-48.56c0.38-1.19,2.12-1,2.23,0.24l4.43,48.07c0.05,0.59,0.55,1.04,1.14,1.04h21.05
		c0.69,0,1.23-0.61,1.14-1.29L263.2,22.58C263.12,22.01,262.64,21.58,262.06,21.58z"/>
	<path d="M302.29,21.9h-21.77c-0.66,0-1.19,0.53-1.19,1.19v92.47c0,0.66,0.53,1.19,1.19,1.19h21.77c0.66,0,1.19-0.53,1.19-1.19
		V23.09C303.48,22.43,302.95,21.9,302.29,21.9z"/>
	<path d="M366.95,82.31c1.6-0.96,3.16-2.12,4.92-3.64c5.87-5.11,9.82-15.14,9.82-24.95c0-10.13-3.99-19.33-10.95-25.22
		c-5.08-4.28-11.62-6.94-28.54-6.94h-29.26c-0.63,0-1.15,0.51-1.15,1.15v92.55c0,0.63,0.51,1.15,1.15,1.15h21.85
		c0.63,0,1.15-0.51,1.15-1.15V88.04c0-0.63,0.51-1.15,1.15-1.15h3.8c0.46,0,0.87,0.27,1.05,0.69l12.41,28.43
		c0.18,0.42,0.6,0.69,1.05,0.69h23.73c0.83,0,1.38-0.85,1.05-1.61l-13.68-31.34C366.26,83.22,366.46,82.6,366.95,82.31z
		 M353.15,63.69c-3.05,1.37-6.75,1.37-8.95,1.37h-7.11c-0.63,0-1.15-0.51-1.15-1.15V44.54c0-0.63,0.51-1.15,1.15-1.15h6.24
		c2.55,0,6.4,0,9.58,1.37c3.79,1.64,5.64,4.7,5.64,9.33C358.54,57.36,357.6,61.68,353.15,63.69z"/>
	<path d="M432.09,19.19c-26.87,0-48.73,22.38-48.73,49.88s21.86,49.88,48.73,49.88c26.87,0,48.73-22.38,48.73-49.88
		S458.96,19.19,432.09,19.19z M432.09,96.31c-14.7,0-26.65-12.22-26.65-27.25c0-15.02,11.96-27.25,26.65-27.25
		c14.7,0,26.66,12.22,26.66,27.25C458.75,84.09,446.79,96.31,432.09,96.31z"/>
	<path d="M563.95,114.94l-32.03-46.4c-0.28-0.41-0.29-0.94-0.01-1.35l28.86-43.45c0.52-0.79-0.04-1.84-0.99-1.84h-22.55
		c-0.4,0-0.78,0.21-1,0.55l-23.18,36.3c-0.64,1-2.19,0.55-2.19-0.64V23.09c0-0.66-0.53-1.19-1.19-1.19h-21.76
		c-0.66,0-1.19,0.53-1.19,1.19v92.47c0,0.65,0.53,1.18,1.18,1.18h21.77c0.66,0,1.19-0.53,1.19-1.19V79.81c0-1.2,1.58-1.64,2.2-0.61
		l22.33,36.98c0.21,0.35,0.6,0.57,1.01,0.57H563C563.93,116.74,564.47,115.7,563.95,114.94z"/>
</g>
<g>
	<g>
		<linearGradient id="SVGID_1_" gradientUnits="userSpaceOnUse" x1="8.5466" y1="75.0625" x2="128.2031" y2="75.0625">
			<stop  offset="6.709266e-08" style="stop-color:#60CAE3"/>
			<stop  offset="0.8406" style="stop-color:#397BBF"/>
		</linearGradient>
		<path class="st2" d="M13.73,27.82c0.1,0.23,0.18,0.36,0.21,0.49c0.97,3.9,2.64,7.5,4.67,10.94c2.83,4.78,6.24,9.12,9.93,13.26
			c3.17,3.56,6.56,6.9,10.11,10.06c1.98,1.76,4.04,3.44,6.09,5.13c3.07,2.53,6.26,4.93,9.53,7.21c3.69,2.57,7.43,5.07,11.19,7.55
			c3.57,2.35,7.26,4.52,10.96,6.66c6.26,3.62,12.65,6.98,19.14,10.16c5.26,2.58,10.57,5.07,15.96,7.37
			c5.18,2.21,10.38,4.39,15.57,6.59c0.37,0.16,0.78,0.23,1.1,0.61c-2.62,3.06-5.48,5.86-8.58,8.42c-0.44,0.11-0.8-0.12-1.17-0.26
			c-2.69-1.02-5.38-2.03-8.05-3.08c-6.96-2.76-13.76-5.87-20.48-9.15c-7.62-3.72-15.07-7.76-22.34-12.13
			c-6.29-3.79-12.42-7.82-18.35-12.15c-5.07-3.7-9.96-7.62-14.61-11.83c-4.74-4.29-9.23-8.81-13.33-13.72
			c-2.91-3.49-5.58-7.15-7.87-11.08c-2.18-3.71-3.83-7.64-4.79-11.85c-0.14-0.61-0.11-1.13,0.2-1.69c1.32-2.35,2.73-4.64,4.31-6.82
			C13.3,28.28,13.51,28.08,13.73,27.82z"/>
	</g>
	<g>
		
			<linearGradient id="SVGID_00000107577081424474783360000005359301220121691061_" gradientUnits="userSpaceOnUse" x1="17.1867" y1="63.0947" x2="138.2139" y2="63.0947">
			<stop  offset="6.709266e-08" style="stop-color:#60CAE3"/>
			<stop  offset="0.8406" style="stop-color:#397BBF"/>
		</linearGradient>
		<path style="fill:url(#SVGID_00000107577081424474783360000005359301220121691061_);" d="M132.85,108
			c-3.56-1.56-7.02-3.03-10.45-4.57c-4.4-1.98-8.79-3.99-13.16-6.04c-5.3-2.49-10.53-5.15-15.72-7.87
			c-3.76-1.97-7.48-3.98-11.16-6.09c-6.5-3.72-12.89-7.61-19.14-11.73c-6.28-4.15-12.42-8.49-18.31-13.18
			c-4.62-3.68-9.05-7.57-13.2-11.79c-3.26-3.32-6.34-6.8-9.04-10.6c-1.82-2.56-3.41-5.26-4.48-8.23c-0.39-1.07-0.64-2.19-0.95-3.29
			c-0.1-0.37-0.08-0.71,0.2-1.03c1.64-1.89,3.37-3.7,5.18-5.38c0.3,0,0.35,0.21,0.42,0.36c1.73,4.25,4.67,7.71,7.2,11.49
			c2.89,4.33,6.56,7.8,10.34,10.92c4.32,4.03,8.88,7.77,13.56,11.37c3.95,3.03,8.05,5.86,12.19,8.63
			c5.83,3.9,11.82,7.53,17.91,10.98c6.96,3.95,14.04,7.66,21.21,11.22c7.03,3.49,14.13,6.86,21.24,10.17
			c3.47,1.62,6.93,3.28,10.39,4.93c0.36,0.17,0.71,0.36,1.13,0.57c-0.46,1.14-1.08,2.14-1.64,3.16c-0.55,1-1.13,1.99-1.74,2.95
			C134.2,105.94,133.62,106.97,132.85,108z"/>
	</g>
	<g>
		
			<linearGradient id="SVGID_00000058554789423814941880000008068016697512586917_" gradientUnits="userSpaceOnUse" x1="25.774" y1="52.1698" x2="143.7241" y2="52.1698">
			<stop  offset="6.709266e-08" style="stop-color:#60CAE3"/>
			<stop  offset="0.8406" style="stop-color:#397BBF"/>
		</linearGradient>
		<path style="fill:url(#SVGID_00000058554789423814941880000008068016697512586917_);" d="M143.7,83.08
			c-0.31-0.23-0.61-0.45-0.9-0.66c-3.95-2.86-8.1-5.39-12.42-7.65c-4.12-2.15-8.24-4.26-12.39-6.37c-8.98-4.56-17.9-9.22-26.6-14.25
			c-5.84-3.37-11.67-6.77-17.36-10.42c-7.62-4.87-15.07-10.02-22.28-15.5c0.08-0.48,0.13-0.97,0.13-1.48c0-5.45-4.43-9.88-9.88-9.88
			c-1.19,0-2.31,0.21-3.36,0.59c-0.42-0.35-0.83-0.73-1.26-1.11c-1.55-1.41-3.08-2.88-4.6-4.32c-0.32-0.3-0.59-0.65-1-0.8
			c-1.26,0.62-5.09,3.46-6,4.46c0.13,0.23,0.24,0.49,0.41,0.73c0.61,0.83,1.21,1.67,1.86,2.47c1.43,1.74,2.94,3.37,4.52,4.95
			c-0.3,0.92-0.45,1.89-0.45,2.91c0,5.45,4.43,9.88,9.88,9.88c1.4,0,2.74-0.3,3.94-0.83c2.16,1.75,4.35,3.44,6.58,5.11
			c6.89,5.14,14.01,9.94,21.32,14.47c6.77,4.21,13.7,8.12,20.76,11.8c6.01,3.15,12.05,6.24,18.06,9.37
			c7.48,3.91,14.83,8.06,21.89,12.7c1.79,1.19,3.57,2.36,5.36,3.53c0.2,0.13,0.44,0.21,0.68,0.34c0.1-0.18,0.2-0.31,0.25-0.44
			c1.16-2.88,2.03-5.84,2.85-8.83C143.76,83.61,143.7,83.35,143.7,83.08z M41.99,32.4c-0.07,0-0.13,0-0.2-0.01
			c-2.75-0.08-5-2.15-5.38-4.81c-0.06-0.27-0.07-0.54-0.07-0.82c0-3.1,2.53-5.65,5.65-5.65c0.31,0,0.61,0.03,0.9,0.08
			c2,0.31,3.67,1.71,4.38,3.57c0.24,0.62,0.37,1.28,0.37,1.99C47.64,29.87,45.09,32.4,41.99,32.4z"/>
	</g>
	<g>
		
			<linearGradient id="SVGID_00000069385355974669086730000004465498546906929806_" gradientUnits="userSpaceOnUse" x1="36.4773" y1="41.2317" x2="145.5415" y2="41.2317">
			<stop  offset="6.709266e-08" style="stop-color:#60CAE3"/>
			<stop  offset="0.8406" style="stop-color:#397BBF"/>
		</linearGradient>
		<path style="fill:url(#SVGID_00000069385355974669086730000004465498546906929806_);" d="M145.49,67.07
			c0.13,3.08-0.01,6.1-0.27,9.11c-0.02,0.21-0.1,0.42-0.16,0.68c-0.25-0.12-0.46-0.2-0.64-0.31c-9.14-5.62-18.4-11.03-27.67-16.43
			c-6.63-3.86-13.24-7.73-19.83-11.65c-6.21-3.69-12.41-7.4-18.57-11.18c-6.44-3.96-12.81-8.02-19.08-12.24
			c-5.78-3.89-11.53-7.83-17.15-11.96c-1.63-1.2-3.25-2.43-4.87-3.65c-0.29-0.22-0.62-0.4-0.78-0.8c0.22-0.15,0.42-0.31,0.65-0.42
			c1.73-0.82,3.47-1.62,5.2-2.45c0.55-0.26,1.01-0.23,1.55,0.08c2.24,1.29,4.53,2.48,6.74,3.8c5.16,3.07,10.29,6.21,15.44,9.31
			c5.09,3.06,10.18,6.1,15.29,9.13c6.31,3.74,12.62,7.48,18.95,11.19c5.95,3.49,11.92,6.92,17.87,10.42c3.4,2,6.76,4.07,10.13,6.11
			c4.54,2.75,8.98,5.67,13.4,8.61C142.98,65.28,144.23,66.19,145.49,67.07z"/>
	</g>
	<g>
		
			<linearGradient id="SVGID_00000069390318790933271720000006591027647789621150_" gradientUnits="userSpaceOnUse" x1="1.7669" y1="86.9381" x2="111.1603" y2="86.9381">
			<stop  offset="6.709266e-08" style="stop-color:#60CAE3"/>
			<stop  offset="0.8406" style="stop-color:#397BBF"/>
		</linearGradient>
		<path style="fill:url(#SVGID_00000069390318790933271720000006591027647789621150_);" d="M5.56,42.25
			c0.21,0.67,0.41,1.26,0.6,1.85c1.03,3.21,2.55,6.2,4.22,9.12c2.47,4.3,5.38,8.28,8.55,12.09c4.49,5.41,9.52,10.28,14.76,14.94
			c4.94,4.39,10.13,8.47,15.43,12.4c3.76,2.79,7.63,5.43,11.53,8.02c4.73,3.14,9.56,6.13,14.46,9.01c4.29,2.52,8.63,4.97,13.04,7.27
			c6.08,3.17,12.27,6.11,18.61,8.74c1.26,0.52,2.54,1,3.8,1.51c0.19,0.08,0.37,0.2,0.6,0.33c-0.14,0.12-0.21,0.2-0.31,0.26
			c-2.38,1.33-4.78,2.62-7.3,3.67c-0.51,0.21-0.96,0.23-1.48,0.04c-2.7-0.99-5.34-2.13-7.95-3.32c-7.92-3.61-15.57-7.76-23.03-12.24
			c-7.4-4.44-14.61-9.19-21.64-14.19c-5.53-3.94-10.91-8.07-16.13-12.42c-5.53-4.61-10.86-9.43-15.87-14.61
			c-5.09-5.26-9.7-10.91-13.44-17.24c-0.71-1.21-1.35-2.46-2.02-3.69c-0.2-0.36-0.29-0.71-0.18-1.16c0.89-3.47,2.06-6.84,3.46-10.14
			C5.3,42.43,5.38,42.39,5.56,42.25z"/>
	</g>
	<g>
		
			<linearGradient id="SVGID_00000119083631851527687330000009676200442124156289_" gradientUnits="userSpaceOnUse" x1="0" y1="98.4426" x2="95.2236" y2="98.4426">
			<stop  offset="6.709266e-08" style="stop-color:#60CAE3"/>
			<stop  offset="0.8406" style="stop-color:#397BBF"/>
		</linearGradient>
		<path style="fill:url(#SVGID_00000119083631851527687330000009676200442124156289_);" d="M95.22,134.36
			c-2.34,0.77-4.49,1.28-6.66,1.69c-1.66,0.32-3.34,0.58-5.01,0.86c-0.63,0.11-1.21,0.01-1.82-0.27
			c-6.44-3.04-12.65-6.49-18.76-10.14c-5.73-3.42-11.35-7.01-16.83-10.82c-5.69-3.96-11.28-8.06-16.64-12.46
			c-2.88-2.36-5.77-4.72-8.55-7.19c-4.97-4.41-9.77-8.99-14.24-13.91c-1.86-2.04-3.59-4.21-5.39-6.31c-0.45-0.52-0.68-1.1-0.78-1.78
			c-0.32-2.16-0.47-4.33-0.53-6.5c-0.06-2.36,0.12-4.72,0.41-7.06c0.02-0.18,0.08-0.35,0.12-0.52c0.41-0.05,0.42,0.28,0.53,0.48
			c0.91,1.65,1.76,3.33,2.7,4.95c2.04,3.51,4.39,6.82,6.93,9.99c2.47,3.09,5.07,6.05,7.84,8.86c1.92,1.94,3.91,3.81,5.91,5.67
			c3.75,3.5,7.7,6.77,11.74,9.92c7.54,5.87,15.36,11.34,23.49,16.37c5.52,3.42,11.14,6.65,16.89,9.66c5,2.62,10.11,4.99,15.34,7.11
			c0.89,0.36,1.78,0.7,2.67,1.06C94.74,134.07,94.88,134.17,95.22,134.36z"/>
	</g>
	<g>
		
			<linearGradient id="SVGID_00000051355814665804050050000000513166286476094093_" gradientUnits="userSpaceOnUse" x1="47.9025" y1="31.4275" x2="145.0564" y2="31.4275">
			<stop  offset="6.709266e-08" style="stop-color:#60CAE3"/>
			<stop  offset="0.8406" style="stop-color:#397BBF"/>
		</linearGradient>
		<path style="fill:url(#SVGID_00000051355814665804050050000000513166286476094093_);" d="M145.02,61.28
			c-0.12-0.04-0.25-0.04-0.32-0.1c-2.54-2.26-5.33-4.2-8.08-6.18c-5.96-4.28-12.08-8.32-18.28-12.25
			c-8.41-5.32-16.92-10.47-25.5-15.51c-7.28-4.28-14.63-8.41-22.07-12.39c-5.85-3.13-11.74-6.18-17.82-8.84
			c-1.45-0.63-2.91-1.25-4.36-1.88c-0.23-0.1-0.46-0.21-0.68-0.31c0.02-0.3,0.23-0.3,0.4-0.35c2.53-0.81,5.12-1.38,7.73-1.87
			C56.34,1.55,56.7,1.58,57,1.67c3.57,1.07,7.1,2.23,10.51,3.73c2.87,1.26,5.74,2.5,8.59,3.8c4.09,1.86,8.07,3.97,12.03,6.09
			c4.48,2.4,8.95,4.84,13.31,7.46c4.42,2.66,8.82,5.35,13.21,8.06c6.59,4.07,12.99,8.42,19.34,12.85c2.69,1.87,5.3,3.87,7.95,5.8
			c0.44,0.32,0.72,0.71,0.87,1.23c0.89,3.01,1.68,6.03,2.05,9.15C144.93,60.31,145.14,60.76,145.02,61.28z"/>
	</g>
	<g>
		
			<linearGradient id="SVGID_00000180350823344248859100000008815207649790034072_" gradientUnits="userSpaceOnUse" x1="65.7859" y1="20.646" x2="139.0529" y2="20.646">
			<stop  offset="6.709266e-08" style="stop-color:#60CAE3"/>
			<stop  offset="0.8406" style="stop-color:#397BBF"/>
		</linearGradient>
		<path style="fill:url(#SVGID_00000180350823344248859100000008815207649790034072_);" d="M65.79,0.24
			c1.62-0.09,3.01-0.2,4.39-0.23c5.19-0.1,10.29,0.52,15.35,1.66c7.27,1.65,14.19,4.2,20.81,7.6c5.83,2.99,11.25,6.61,16.23,10.87
			c3.38,2.88,6.42,6.09,9.18,9.56c2.58,3.24,4.84,6.69,6.79,10.34c0.19,0.36,0.34,0.73,0.51,1.1c0.01,0.02-0.03,0.06-0.08,0.16
			c-0.14-0.09-0.29-0.16-0.42-0.26c-5.21-3.81-10.41-7.62-15.77-11.22c-3.49-2.34-7.02-4.62-10.57-6.87
			c-4.17-2.64-8.41-5.18-12.74-7.55c-5.43-2.98-10.89-5.89-16.51-8.5c-4.98-2.32-10.1-4.3-15.32-5.99
			c-0.42-0.14-0.85-0.23-1.28-0.35C66.22,0.51,66.12,0.43,65.79,0.24z"/>
	</g>
	<g>
		
			<linearGradient id="SVGID_00000105423275532357654540000000776883822483797162_" gradientUnits="userSpaceOnUse" x1="3.3303" y1="111.9797" x2="74.6455" y2="111.9797">
			<stop  offset="6.709266e-08" style="stop-color:#60CAE3"/>
			<stop  offset="0.8406" style="stop-color:#397BBF"/>
		</linearGradient>
		<path style="fill:url(#SVGID_00000105423275532357654540000000776883822483797162_);" d="M74.65,137.94
			c-0.33,0.23-0.64,0.17-0.91,0.18c-4.43,0.11-8.74-0.47-12.92-1.99c-6.31-2.29-12.46-4.95-18.31-8.27
			c-6.39-3.63-12.47-7.73-18.03-12.56c-6.03-5.23-11.14-11.25-15.37-18.03c-2.13-3.42-4-6.96-5.52-10.69
			c-0.09-0.23-0.17-0.47-0.26-0.71c0.36-0.15,0.42,0.14,0.54,0.28c1.79,2.01,3.54,4.06,5.36,6.04c3.43,3.72,7.12,7.16,10.94,10.48
			c5.57,4.84,11.5,9.22,17.63,13.34c5.14,3.45,10.38,6.76,15.69,9.94c5.35,3.2,10.79,6.22,16.24,9.23c1.52,0.84,3.05,1.64,4.57,2.46
			C74.42,137.7,74.5,137.81,74.65,137.94z"/>
	</g>
</g>
</svg>
