<?xml version="1.0" encoding="utf-8"?>
<!-- Generator: Adobe Illustrator 28.2.0, SVG Export Plug-In . SVG Version: 6.00 Build 0)  -->
<svg version="1.1" id="Layer_1" xmlns="http://www.w3.org/2000/svg" xmlns:xlink="http://www.w3.org/1999/xlink" x="0px" y="0px"
	 viewBox="0 0 145.54 138.13" style="enable-background:new 0 0 145.54 138.13;" xml:space="preserve">
<style type="text/css">
	.st0{fill:none;stroke:#000000;stroke-width:3;stroke-miterlimit:10;}
	.st1{fill:#33292C;}
	.st2{fill:url(#SVGID_1_);}
	.st3{fill:url(#SVGID_00000082339565247256973070000003137371239327538861_);}
	.st4{fill:url(#SVGID_00000005953062522644048950000013751650129756532389_);}
	.st5{fill:url(#SVGID_00000054225039792792081020000009366973325414672260_);}
	.st6{fill:url(#SVGID_00000013897275332621493320000018304510604827037094_);}
	.st7{fill:url(#SVGID_00000029019147925126369910000008952533483219269527_);}
	.st8{fill:url(#SVGID_00000088105373683897677630000005308863320264761229_);}
	.st9{fill:url(#SVGID_00000143605927883173022690000013542315368343175605_);}
	.st10{fill:url(#SVGID_00000150816715344822723030000004089516578574507169_);}
	.st11{fill:url(#SVGID_00000165225374678753200540000004155072569395307655_);}
	.st12{fill:url(#SVGID_00000070826960722304691970000014003844364481464716_);}
	.st13{fill:url(#SVGID_00000088125543692108290830000005780851130957867704_);}
	.st14{fill:url(#SVGID_00000026871785148184256270000010398154133079973538_);}
	.st15{fill:url(#SVGID_00000168091902545721788730000016733265943629770371_);}
	.st16{fill:url(#SVGID_00000108268669505096868510000007823822265620406937_);}
	.st17{fill:url(#SVGID_00000140704008930237435060000017770686511307659400_);}
	.st18{fill:url(#SVGID_00000085209394176227870560000010390231469854695329_);}
	.st19{fill:url(#SVGID_00000083066594810986685040000012961199219194069685_);}
	.st20{fill:url(#SVGID_00000116921383883642655260000003420745852571703177_);}
	.st21{fill:url(#SVGID_00000122694104157457492950000003967725114573803907_);}
	.st22{fill:url(#SVGID_00000182513421320466830160000003585486349595351212_);}
	.st23{fill:url(#SVGID_00000097497263863650347380000011583441622675389100_);}
	.st24{fill:url(#SVGID_00000054983100426400288380000011964046234007876010_);}
	.st25{fill:url(#SVGID_00000014597163155513635990000012198591340748811160_);}
	.st26{fill:url(#SVGID_00000063599483537935461440000015709777734294066305_);}
	.st27{fill:url(#SVGID_00000121240271524287327080000003602681354968657292_);}
	.st28{fill:url(#SVGID_00000036934994731583202720000009407721893537126030_);}
	.st29{fill:url(#SVGID_00000090998040420047863750000006462875780535005357_);}
</style>
<g>
	<g>
		<linearGradient id="SVGID_1_" gradientUnits="userSpaceOnUse" x1="8.5466" y1="75.0625" x2="128.2031" y2="75.0625">
			<stop  offset="6.709266e-08" style="stop-color:#60CAE3"/>
			<stop  offset="0.8406" style="stop-color:#397BBF"/>
		</linearGradient>
		<path class="st2" d="M13.73,27.82c0.1,0.23,0.18,0.36,0.21,0.49c0.97,3.9,2.64,7.5,4.67,10.94c2.83,4.78,6.24,9.12,9.93,13.26
			c3.17,3.56,6.56,6.9,10.11,10.06c1.98,1.76,4.04,3.44,6.09,5.13c3.07,2.53,6.26,4.93,9.53,7.21c3.69,2.57,7.43,5.07,11.19,7.55
			c3.57,2.35,7.26,4.52,10.96,6.66c6.26,3.62,12.65,6.98,19.14,10.16c5.26,2.58,10.57,5.07,15.96,7.37
			c5.18,2.21,10.38,4.39,15.57,6.59c0.37,0.16,0.78,0.23,1.1,0.61c-2.62,3.06-5.48,5.86-8.58,8.42c-0.44,0.11-0.8-0.12-1.17-0.26
			c-2.69-1.02-5.38-2.03-8.05-3.08c-6.96-2.76-13.76-5.87-20.48-9.15c-7.62-3.72-15.07-7.76-22.34-12.13
			c-6.29-3.79-12.42-7.82-18.35-12.15c-5.07-3.7-9.96-7.62-14.61-11.83c-4.74-4.29-9.23-8.81-13.33-13.72
			c-2.91-3.49-5.58-7.15-7.87-11.08c-2.18-3.71-3.83-7.64-4.79-11.85c-0.14-0.61-0.11-1.13,0.2-1.69c1.32-2.35,2.73-4.64,4.31-6.82
			C13.3,28.28,13.51,28.08,13.73,27.82z"/>
	</g>
	<g>
		
			<linearGradient id="SVGID_00000003076602037594994530000001496070005830642367_" gradientUnits="userSpaceOnUse" x1="17.1867" y1="63.0947" x2="138.2139" y2="63.0947">
			<stop  offset="6.709266e-08" style="stop-color:#60CAE3"/>
			<stop  offset="0.8406" style="stop-color:#397BBF"/>
		</linearGradient>
		<path style="fill:url(#SVGID_00000003076602037594994530000001496070005830642367_);" d="M132.85,108
			c-3.56-1.56-7.02-3.03-10.45-4.57c-4.4-1.98-8.79-3.99-13.16-6.04c-5.3-2.49-10.53-5.15-15.72-7.87
			c-3.76-1.97-7.48-3.98-11.16-6.09c-6.5-3.72-12.89-7.61-19.14-11.73c-6.28-4.15-12.42-8.49-18.31-13.18
			c-4.62-3.68-9.05-7.57-13.2-11.79c-3.26-3.32-6.34-6.8-9.04-10.6c-1.82-2.56-3.41-5.26-4.48-8.23c-0.39-1.07-0.64-2.19-0.95-3.29
			c-0.1-0.37-0.08-0.71,0.2-1.03c1.64-1.89,3.37-3.7,5.18-5.38c0.3,0,0.35,0.21,0.42,0.36c1.73,4.25,4.67,7.71,7.2,11.49
			c2.89,4.33,6.56,7.8,10.34,10.92c4.32,4.03,8.88,7.77,13.56,11.37c3.95,3.03,8.05,5.86,12.19,8.63
			c5.83,3.9,11.82,7.53,17.91,10.98c6.96,3.95,14.04,7.66,21.21,11.22c7.03,3.49,14.13,6.86,21.24,10.17
			c3.47,1.62,6.93,3.28,10.39,4.93c0.36,0.17,0.71,0.36,1.13,0.57c-0.46,1.14-1.08,2.14-1.64,3.16c-0.55,1-1.13,1.99-1.74,2.95
			C134.2,105.94,133.62,106.97,132.85,108z"/>
	</g>
	<g>
		
			<linearGradient id="SVGID_00000057835841015180294600000012014538162281239453_" gradientUnits="userSpaceOnUse" x1="25.774" y1="52.1698" x2="143.7241" y2="52.1698">
			<stop  offset="6.709266e-08" style="stop-color:#60CAE3"/>
			<stop  offset="0.8406" style="stop-color:#397BBF"/>
		</linearGradient>
		<path style="fill:url(#SVGID_00000057835841015180294600000012014538162281239453_);" d="M143.7,83.08
			c-0.31-0.23-0.61-0.45-0.9-0.66c-3.95-2.86-8.1-5.39-12.42-7.65c-4.12-2.15-8.24-4.26-12.39-6.37c-8.98-4.56-17.9-9.22-26.6-14.25
			c-5.84-3.37-11.67-6.77-17.36-10.42c-7.62-4.87-15.07-10.02-22.28-15.5c0.08-0.48,0.13-0.97,0.13-1.48c0-5.45-4.43-9.88-9.88-9.88
			c-1.19,0-2.31,0.21-3.36,0.59c-0.42-0.35-0.83-0.73-1.26-1.11c-1.55-1.41-3.08-2.88-4.6-4.32c-0.32-0.3-0.59-0.65-1-0.8
			c-1.26,0.62-5.09,3.46-6,4.46c0.13,0.23,0.24,0.49,0.41,0.73c0.61,0.83,1.21,1.67,1.86,2.47c1.43,1.74,2.94,3.37,4.52,4.95
			c-0.3,0.92-0.45,1.89-0.45,2.91c0,5.45,4.43,9.88,9.88,9.88c1.4,0,2.74-0.3,3.94-0.83c2.16,1.75,4.35,3.44,6.58,5.11
			c6.89,5.14,14.01,9.94,21.32,14.47c6.77,4.21,13.7,8.12,20.76,11.8c6.01,3.15,12.05,6.24,18.06,9.37
			c7.48,3.91,14.83,8.06,21.89,12.7c1.79,1.19,3.57,2.36,5.36,3.53c0.2,0.13,0.44,0.21,0.68,0.34c0.1-0.18,0.2-0.31,0.25-0.44
			c1.16-2.88,2.03-5.84,2.85-8.83C143.76,83.61,143.7,83.35,143.7,83.08z M41.99,32.4c-0.07,0-0.13,0-0.2-0.01
			c-2.75-0.08-5-2.15-5.38-4.81c-0.06-0.27-0.07-0.54-0.07-0.82c0-3.1,2.53-5.65,5.65-5.65c0.31,0,0.61,0.03,0.9,0.08
			c2,0.31,3.67,1.71,4.38,3.57c0.24,0.62,0.37,1.28,0.37,1.99C47.64,29.87,45.09,32.4,41.99,32.4z"/>
	</g>
	<g>
		
			<linearGradient id="SVGID_00000038411941176349432170000005323301540889458064_" gradientUnits="userSpaceOnUse" x1="36.4773" y1="41.2317" x2="145.5415" y2="41.2317">
			<stop  offset="6.709266e-08" style="stop-color:#60CAE3"/>
			<stop  offset="0.8406" style="stop-color:#397BBF"/>
		</linearGradient>
		<path style="fill:url(#SVGID_00000038411941176349432170000005323301540889458064_);" d="M145.49,67.07
			c0.13,3.08-0.01,6.1-0.27,9.11c-0.02,0.21-0.1,0.42-0.16,0.68c-0.25-0.12-0.46-0.2-0.64-0.31c-9.14-5.62-18.4-11.03-27.67-16.43
			c-6.63-3.86-13.24-7.73-19.83-11.65c-6.21-3.69-12.41-7.4-18.57-11.18c-6.44-3.96-12.81-8.02-19.08-12.24
			c-5.78-3.89-11.53-7.83-17.15-11.96c-1.63-1.2-3.25-2.43-4.87-3.65c-0.29-0.22-0.62-0.4-0.78-0.8c0.22-0.15,0.42-0.31,0.65-0.42
			c1.73-0.82,3.47-1.62,5.2-2.45c0.55-0.26,1.01-0.23,1.55,0.08c2.24,1.29,4.53,2.48,6.74,3.8c5.16,3.07,10.29,6.21,15.44,9.31
			c5.09,3.06,10.18,6.1,15.29,9.13c6.31,3.74,12.62,7.48,18.95,11.19c5.95,3.49,11.92,6.92,17.87,10.42c3.4,2,6.76,4.07,10.13,6.11
			c4.54,2.75,8.98,5.67,13.4,8.61C142.98,65.28,144.23,66.19,145.49,67.07z"/>
	</g>
	<g>
		
			<linearGradient id="SVGID_00000160890199024028549000000007580250025055274923_" gradientUnits="userSpaceOnUse" x1="1.7669" y1="86.9381" x2="111.1603" y2="86.9381">
			<stop  offset="6.709266e-08" style="stop-color:#60CAE3"/>
			<stop  offset="0.8406" style="stop-color:#397BBF"/>
		</linearGradient>
		<path style="fill:url(#SVGID_00000160890199024028549000000007580250025055274923_);" d="M5.56,42.25
			c0.21,0.67,0.41,1.26,0.6,1.85c1.03,3.21,2.55,6.2,4.22,9.12c2.47,4.3,5.38,8.28,8.55,12.09c4.49,5.41,9.52,10.28,14.76,14.94
			c4.94,4.39,10.13,8.47,15.43,12.4c3.76,2.79,7.63,5.43,11.53,8.02c4.73,3.14,9.56,6.13,14.46,9.01c4.29,2.52,8.63,4.97,13.04,7.27
			c6.08,3.17,12.27,6.11,18.61,8.74c1.26,0.52,2.54,1,3.8,1.51c0.19,0.08,0.37,0.2,0.6,0.33c-0.14,0.12-0.21,0.2-0.31,0.26
			c-2.38,1.33-4.78,2.62-7.3,3.67c-0.51,0.21-0.96,0.23-1.48,0.04c-2.7-0.99-5.34-2.13-7.95-3.32c-7.92-3.61-15.57-7.76-23.03-12.24
			c-7.4-4.44-14.61-9.19-21.64-14.19c-5.53-3.94-10.91-8.07-16.13-12.42c-5.53-4.61-10.86-9.43-15.87-14.61
			c-5.09-5.26-9.7-10.91-13.44-17.24c-0.71-1.21-1.35-2.46-2.02-3.69c-0.2-0.36-0.29-0.71-0.18-1.16c0.89-3.47,2.06-6.84,3.46-10.14
			C5.3,42.43,5.38,42.39,5.56,42.25z"/>
	</g>
	<g>
		
			<linearGradient id="SVGID_00000115501383038253096750000002836914325630759851_" gradientUnits="userSpaceOnUse" x1="0" y1="98.4426" x2="95.2236" y2="98.4426">
			<stop  offset="6.709266e-08" style="stop-color:#60CAE3"/>
			<stop  offset="0.8406" style="stop-color:#397BBF"/>
		</linearGradient>
		<path style="fill:url(#SVGID_00000115501383038253096750000002836914325630759851_);" d="M95.22,134.36
			c-2.34,0.77-4.49,1.28-6.66,1.69c-1.66,0.32-3.34,0.58-5.01,0.86c-0.63,0.11-1.21,0.01-1.82-0.27
			c-6.44-3.04-12.65-6.49-18.76-10.14c-5.73-3.42-11.35-7.01-16.83-10.82c-5.69-3.96-11.28-8.06-16.64-12.46
			c-2.88-2.36-5.77-4.72-8.55-7.19c-4.97-4.41-9.77-8.99-14.24-13.91c-1.86-2.04-3.59-4.21-5.39-6.31c-0.45-0.52-0.68-1.1-0.78-1.78
			c-0.32-2.16-0.47-4.33-0.53-6.5c-0.06-2.36,0.12-4.72,0.41-7.06c0.02-0.18,0.08-0.35,0.12-0.52c0.41-0.05,0.42,0.28,0.53,0.48
			c0.91,1.65,1.76,3.33,2.7,4.95c2.04,3.51,4.39,6.82,6.93,9.99c2.47,3.09,5.07,6.05,7.84,8.86c1.92,1.94,3.91,3.81,5.91,5.67
			c3.75,3.5,7.7,6.77,11.74,9.92c7.54,5.87,15.36,11.34,23.49,16.37c5.52,3.42,11.14,6.65,16.89,9.66c5,2.62,10.11,4.99,15.34,7.11
			c0.89,0.36,1.78,0.7,2.67,1.06C94.74,134.07,94.88,134.17,95.22,134.36z"/>
	</g>
	<g>
		
			<linearGradient id="SVGID_00000135653093857804158060000001737096773400066222_" gradientUnits="userSpaceOnUse" x1="47.9025" y1="31.4275" x2="145.0564" y2="31.4275">
			<stop  offset="6.709266e-08" style="stop-color:#60CAE3"/>
			<stop  offset="0.8406" style="stop-color:#397BBF"/>
		</linearGradient>
		<path style="fill:url(#SVGID_00000135653093857804158060000001737096773400066222_);" d="M145.02,61.28
			c-0.12-0.04-0.25-0.04-0.32-0.1c-2.54-2.26-5.33-4.2-8.08-6.18c-5.96-4.28-12.08-8.32-18.28-12.25
			c-8.41-5.32-16.92-10.47-25.5-15.51c-7.28-4.28-14.63-8.41-22.07-12.39c-5.85-3.13-11.74-6.18-17.82-8.84
			c-1.45-0.63-2.91-1.25-4.36-1.88c-0.23-0.1-0.46-0.21-0.68-0.31c0.02-0.3,0.23-0.3,0.4-0.35c2.53-0.81,5.12-1.38,7.73-1.87
			C56.34,1.55,56.7,1.58,57,1.67c3.57,1.07,7.1,2.23,10.51,3.73c2.87,1.26,5.74,2.5,8.59,3.8c4.09,1.86,8.07,3.97,12.03,6.09
			c4.48,2.4,8.95,4.84,13.31,7.46c4.42,2.66,8.82,5.35,13.21,8.06c6.59,4.07,12.99,8.42,19.34,12.85c2.69,1.87,5.3,3.87,7.95,5.8
			c0.44,0.32,0.72,0.71,0.87,1.23c0.89,3.01,1.68,6.03,2.05,9.15C144.93,60.31,145.14,60.76,145.02,61.28z"/>
	</g>
	<g>
		
			<linearGradient id="SVGID_00000060721683584467160740000007396703194312170134_" gradientUnits="userSpaceOnUse" x1="65.7859" y1="20.646" x2="139.0529" y2="20.646">
			<stop  offset="6.709266e-08" style="stop-color:#60CAE3"/>
			<stop  offset="0.8406" style="stop-color:#397BBF"/>
		</linearGradient>
		<path style="fill:url(#SVGID_00000060721683584467160740000007396703194312170134_);" d="M65.79,0.24
			c1.62-0.09,3.01-0.2,4.39-0.23c5.19-0.1,10.29,0.52,15.35,1.66c7.27,1.65,14.19,4.2,20.81,7.6c5.83,2.99,11.25,6.61,16.23,10.87
			c3.38,2.88,6.42,6.09,9.18,9.56c2.58,3.24,4.84,6.69,6.79,10.34c0.19,0.36,0.34,0.73,0.51,1.1c0.01,0.02-0.03,0.06-0.08,0.16
			c-0.14-0.09-0.29-0.16-0.42-0.26c-5.21-3.81-10.41-7.62-15.77-11.22c-3.49-2.34-7.02-4.62-10.57-6.87
			c-4.17-2.64-8.41-5.18-12.74-7.55c-5.43-2.98-10.89-5.89-16.51-8.5c-4.98-2.32-10.1-4.3-15.32-5.99
			c-0.42-0.14-0.85-0.23-1.28-0.35C66.22,0.51,66.12,0.43,65.79,0.24z"/>
	</g>
	<g>
		
			<linearGradient id="SVGID_00000160880514944094698030000014972837936000005547_" gradientUnits="userSpaceOnUse" x1="3.3303" y1="111.9797" x2="74.6455" y2="111.9797">
			<stop  offset="6.709266e-08" style="stop-color:#60CAE3"/>
			<stop  offset="0.8406" style="stop-color:#397BBF"/>
		</linearGradient>
		<path style="fill:url(#SVGID_00000160880514944094698030000014972837936000005547_);" d="M74.65,137.94
			c-0.33,0.23-0.64,0.17-0.91,0.18c-4.43,0.11-8.74-0.47-12.92-1.99c-6.31-2.29-12.46-4.95-18.31-8.27
			c-6.39-3.63-12.47-7.73-18.03-12.56c-6.03-5.23-11.14-11.25-15.37-18.03c-2.13-3.42-4-6.96-5.52-10.69
			c-0.09-0.23-0.17-0.47-0.26-0.71c0.36-0.15,0.42,0.14,0.54,0.28c1.79,2.01,3.54,4.06,5.36,6.04c3.43,3.72,7.12,7.16,10.94,10.48
			c5.57,4.84,11.5,9.22,17.63,13.34c5.14,3.45,10.38,6.76,15.69,9.94c5.35,3.2,10.79,6.22,16.24,9.23c1.52,0.84,3.05,1.64,4.57,2.46
			C74.42,137.7,74.5,137.81,74.65,137.94z"/>
	</g>
</g>
</svg>
